<svg width="35" height="40" viewBox="0 0 45 57" fill="none" xmlns="http://www.w3.org/2000/svg">
<path d="M22.5 28.5C24.0469 28.5 25.3711 27.9419 26.4727 26.8256C27.5742 25.7094 28.125 24.3675 28.125 22.8C28.125 21.2325 27.5742 19.8906 26.4727 18.7744C25.3711 17.6581 24.0469 17.1 22.5 17.1C20.9531 17.1 19.6289 17.6581 18.5273 18.7744C17.4258 19.8906 16.875 21.2325 16.875 22.8C16.875 24.3675 17.4258 25.7094 18.5273 26.8256C19.6289 27.9419 20.9531 28.5 22.5 28.5ZM22.5 49.4475C28.2188 44.1275 32.4609 39.2944 35.2266 34.9481C37.9922 30.6019 39.375 26.7425 39.375 23.37C39.375 18.1925 37.7461 13.9531 34.4883 10.6519C31.2305 7.35063 27.2344 5.7 22.5 5.7C17.7656 5.7 13.7695 7.35063 10.5117 10.6519C7.25391 13.9531 5.625 18.1925 5.625 23.37C5.625 26.7425 7.00781 30.6019 9.77344 34.9481C12.5391 39.2944 16.7812 44.1275 22.5 49.4475ZM22.5 57C14.9531 50.4925 9.31641 44.4481 5.58984 38.8669C1.86328 33.2856 0 28.12 0 23.37C0 16.245 2.26172 10.5687 6.78516 6.34125C11.3086 2.11375 16.5469 0 22.5 0C28.4531 0 33.6914 2.11375 38.2148 6.34125C42.7383 10.5687 45 16.245 45 23.37C45 28.12 43.1367 33.2856 39.4102 38.8669C35.6836 44.4481 30.0469 50.4925 22.5 57Z" fill="white"/>
</svg>
