<svg width="35" height="40" viewBox="0 0 46 46" fill="none" xmlns="http://www.w3.org/2000/svg">
<path d="M11.2125 23L10.6375 20.125C10.2542 19.9653 9.89483 19.7976 9.55942 19.6219C9.224 19.4462 8.8806 19.2306 8.52921 18.975L5.75004 19.8375L3.83337 16.5792L6.03754 14.6625C5.97365 14.2473 5.94171 13.832 5.94171 13.4167C5.94171 13.0014 5.97365 12.5862 6.03754 12.1709L3.83337 10.2542L5.75004 6.99587L8.52921 7.85837C8.8806 7.60282 9.224 7.38719 9.55942 7.2115C9.89483 7.0358 10.2542 6.8681 10.6375 6.70837L11.2125 3.83337H15.0459L15.6209 6.70837C16.0042 6.8681 16.3636 7.0358 16.699 7.2115C17.0344 7.38719 17.3778 7.60282 17.7292 7.85837L20.5084 6.99587L22.425 10.2542L20.2209 12.1709C20.2848 12.5862 20.3167 13.0014 20.3167 13.4167C20.3167 13.832 20.2848 14.2473 20.2209 14.6625L22.425 16.5792L20.5084 19.8375L17.7292 18.975C17.3778 19.2306 17.0344 19.4462 16.699 19.6219C16.3636 19.7976 16.0042 19.9653 15.6209 20.125L15.0459 23H11.2125ZM13.1292 17.25C14.1834 17.25 15.0858 16.8747 15.8365 16.124C16.5872 15.3733 16.9625 14.4709 16.9625 13.4167C16.9625 12.3625 16.5872 11.4601 15.8365 10.7094C15.0858 9.95872 14.1834 9.58337 13.1292 9.58337C12.075 9.58337 11.1726 9.95872 10.4219 10.7094C9.67122 11.4601 9.29587 12.3625 9.29587 13.4167C9.29587 14.4709 9.67122 15.3733 10.4219 16.124C11.1726 16.8747 12.075 17.25 13.1292 17.25ZM28.3667 44.0834L27.5042 40.0584C26.9612 39.8667 26.458 39.6351 25.9948 39.3636C25.5316 39.0921 25.0764 38.7806 24.6292 38.4292L20.7959 39.675L18.1125 35.075L21.1792 32.3917C21.1153 31.8167 21.0834 31.2417 21.0834 30.6667C21.0834 30.0917 21.1153 29.5167 21.1792 28.9417L18.1125 26.2584L20.7959 21.6584L24.6292 22.9042C25.0764 22.5528 25.5316 22.2414 25.9948 21.9698C26.458 21.6983 26.9612 21.4667 27.5042 21.275L28.3667 17.25H33.7334L34.5959 21.275C35.1389 21.4667 35.6421 21.6983 36.1052 21.9698C36.5684 22.2414 37.0237 22.5528 37.4709 22.9042L41.3042 21.6584L43.9875 26.2584L40.9209 28.9417C40.9848 29.5167 41.0167 30.0917 41.0167 30.6667C41.0167 31.2417 40.9848 31.8167 40.9209 32.3917L43.9875 35.075L41.3042 39.675L37.4709 38.4292C37.0237 38.7806 36.5684 39.0921 36.1052 39.3636C35.6421 39.6351 35.1389 39.8667 34.5959 40.0584L33.7334 44.0834H28.3667ZM31.05 36.4167C32.6473 36.4167 34.0049 35.8577 35.123 34.7396C36.241 33.6216 36.8 32.2639 36.8 30.6667C36.8 29.0695 36.241 27.7118 35.123 26.5938C34.0049 25.4757 32.6473 24.9167 31.05 24.9167C29.4528 24.9167 28.0952 25.4757 26.9771 26.5938C25.8591 27.7118 25.3 29.0695 25.3 30.6667C25.3 32.2639 25.8591 33.6216 26.9771 34.7396C28.0952 35.8577 29.4528 36.4167 31.05 36.4167Z" fill="#E8EAED"/>
</svg>
